<svg width="62" height="62" fill="none" xmlns="http://www.w3.org/2000/svg"><g filter="url('#filter0_d_1_308')"><circle cx="31.001" cy="27" r="17" fill="#fff"/></g><g clip-path="url('#clip0_1_308')" fill="#000"><path d="M34.482 20H28.52A3.523 3.523 0 0 0 25 23.519v5.962A3.523 3.523 0 0 0 28.52 33h5.962A3.523 3.523 0 0 0 38 29.481V23.52A3.523 3.523 0 0 0 34.48 20Zm2.757 9.481a2.76 2.76 0 0 1-2.757 2.757H28.52a2.76 2.76 0 0 1-2.757-2.757V23.52a2.76 2.76 0 0 1 2.757-2.757h5.962a2.76 2.76 0 0 1 2.757 2.757v5.962Z"/><path d="M31.5 22.945a3.559 3.559 0 0 0-3.554 3.555 3.559 3.559 0 0 0 3.555 3.555 3.559 3.559 0 0 0 3.554-3.555 3.559 3.559 0 0 0-3.554-3.555Zm0 6.347a2.796 2.796 0 0 1-2.792-2.792 2.796 2.796 0 0 1 2.793-2.793 2.796 2.796 0 0 1 2.792 2.793 2.796 2.796 0 0 1-2.792 2.792ZM35.14 21.683a1.052 1.052 0 0 0 0 2.1 1.052 1.052 0 0 0 0-2.1Zm0 1.339a.289.289 0 1 1 .001-.578.289.289 0 0 1 0 .578Z"/></g><defs><clipPath id="clip0_1_308"><path fill="#fff" transform="translate(25 20)" d="M0 0h13v13H0z"/></clipPath><filter id="filter0_d_1_308" x=".001" y="0" width="62" height="62" filterUnits="userSpaceOnUse" color-interpolation-filters="sRGB"><feFlood flood-opacity="0" result="BackgroundImageFix"/><feColorMatrix in="SourceAlpha" values="0 0 0 0 0 0 0 0 0 0 0 0 0 0 0 0 0 0 127 0" result="hardAlpha"/><feOffset dy="4"/><feGaussianBlur stdDeviation="7"/><feColorMatrix values="0 0 0 0 0 0 0 0 0 0 0 0 0 0 0 0 0 0 0.15 0"/><feBlend in2="BackgroundImageFix" result="effect1_dropShadow_1_308"/><feBlend in="SourceGraphic" in2="effect1_dropShadow_1_308" result="shape"/></filter></defs></svg>